<svg width="140" height="50" viewBox="0 0 140 50" fill="none" xmlns="http://www.w3.org/2000/svg">
<path d="M72.7839 30.5255C72.7357 29.6362 72.806 29.0594 73.8974 29.009C74.4813 28.9808 75.1734 28.5674 75.5868 28.1136C76.6481 26.9561 76.8808 25.492 76.602 23.9755C76.4013 22.8402 75.5045 22.2897 74.5414 22.9027C73.3222 23.7155 72.1881 24.6506 71.1568 25.6937C70.8438 25.9982 70.9561 26.7141 70.7956 27.2183C70.4967 28.1721 70.2579 29.1704 69.7925 30.0415C68.1874 33.006 65.5912 33.8469 62.4553 32.4615C60.3205 36.4241 56.9218 38.832 52.6925 40.05C48.5052 41.26 44.3882 41.1107 40.4899 38.8562C40.4578 38.8723 40.3716 38.8824 40.3595 38.9207C39.1818 42.2542 36.5816 43.4137 33.3374 43.4964C32.6071 43.5145 32.2459 43.7545 31.8747 44.3777C27.4608 51.8028 16.6748 51.8815 12.1003 44.5289C11.982 44.2967 11.8002 44.1034 11.5763 43.9715C11.3524 43.8397 11.0956 43.7749 10.8363 43.7848C9.10485 43.7323 7.35533 43.7485 5.65195 43.4843C3.36072 43.1294 1.78374 41.6976 1.05143 39.4934C0.583442 38.171 0.276906 36.7964 0.138544 35.3997C-0.154381 31.6044 -0.013937 27.8313 1.22598 24.1691C2.15491 21.4286 4.10306 19.8858 6.84371 19.2869C10.0739 18.5771 13.0814 17.4982 15.2904 14.7858C16.5504 13.2371 18.3701 12.7067 20.2721 12.5675C21.5703 12.4617 22.875 12.4657 24.1724 12.5796C25.1927 12.6488 26.181 12.9664 27.052 13.505C27.923 14.0435 28.6507 14.787 29.1722 15.6711C29.8243 16.7117 30.5887 17.6877 31.4033 18.8271C32.2961 17.1392 33.5962 17.5526 34.796 17.8712C35.6868 18.1072 36.5214 18.5508 37.5045 18.9521C37.7052 18.2403 37.9058 17.4881 38.1064 16.7339C39.4446 12.0009 41.3306 7.55424 44.9741 4.09775C48.7861 0.483977 53.2944 -0.721959 58.3764 0.417429C63.1013 1.47817 64.572 5.45897 63.4564 9.62328C63.1415 10.805 62.3831 11.6399 61.1512 11.894C59.6745 12.1925 58.3062 11.9948 57.1907 10.7102C58.3967 9.72471 59.2053 8.33217 59.4659 6.79195C59.7086 5.44485 59.5642 4.1159 58.4807 3.16204C57.3973 2.20818 56.0049 2.20617 54.8112 2.84745C53.7242 3.41918 52.7516 4.18761 51.9421 5.11413C49.6107 7.86681 48.3046 11.1741 47.2754 14.5922C45.9432 19.0147 45.0905 23.5158 45.3493 28.16C45.4165 29.4008 45.617 30.6307 45.9472 31.8283C46.6353 34.2946 48.1862 35.5126 50.7443 35.6356C54.7229 35.8373 58.1778 34.593 60.8944 31.5883C61.1838 31.2118 61.3265 30.7421 61.2956 30.2674C61.0769 27.3614 61.7751 24.7378 63.625 22.4832C64.1491 21.8237 64.8213 21.2986 65.5865 20.9508C66.3517 20.6031 67.188 20.4427 68.0269 20.4828C69.6982 20.5211 70.6913 21.3721 70.9822 23.0398C71.0384 23.3645 71.0845 23.6912 71.1648 24.1974C71.8028 23.5097 72.2643 22.8442 72.8802 22.3824C73.8031 21.6988 74.7642 20.8821 75.8315 20.6118C78.8109 19.8556 80.9998 22.2735 80.3277 25.4174C79.8903 27.4542 78.6103 28.8457 76.9169 29.7733L78.7909 32.163C80.3157 32.0581 81.7703 30.4892 81.8786 28.8578C82.1715 24.3829 83.5238 20.2509 86.124 16.5867C86.9506 15.4211 87.9959 14.4692 89.5769 14.4773C90.9192 14.4773 91.7518 15.1811 92.0487 16.4939C92.5202 18.5952 91.806 20.4606 90.9513 22.3018C90.7406 22.7575 90.4918 23.1951 90.2651 23.6327C90.8409 24.7116 91.7558 24.5704 92.6727 24.3184C93.5896 24.0663 94.4924 23.8606 94.5125 22.5921C94.5125 22.0033 94.7493 21.4185 94.8917 20.7651H98.3988L96.7736 28.5896C96.7497 28.6519 96.7302 28.716 96.7155 28.7811C96.6793 29.4829 96.244 30.4166 97.1568 30.7292C98.0697 31.0418 98.7077 30.2613 98.9445 29.487C99.4501 27.8293 99.8072 26.1232 100.204 24.4313C100.433 23.4532 100.652 22.4711 100.806 21.481C100.895 20.9123 101.105 20.6582 101.705 20.6864C102.598 20.7268 103.493 20.6965 104.5 20.6965C103.697 24.5422 102.909 28.2548 102.092 32.1126C103.982 31.429 104.833 30.096 105.218 28.4202C105.736 26.1716 106.203 23.907 106.607 21.6322C106.745 20.8619 107.052 20.6239 107.786 20.6824C108.579 20.7409 109.377 20.6965 110.316 20.6965C110.005 22.2796 109.714 23.7416 109.432 25.2016C109.299 25.8651 109.06 26.6576 109.907 26.9198C110.71 27.1699 111.38 26.6435 111.631 25.8893C112.032 24.6894 112.293 23.4411 112.6 22.211C112.714 21.7573 112.8 21.2934 112.901 20.7651H116.404C115.986 22.7817 115.571 24.7499 115.166 26.7302C114.945 27.6407 114.777 28.5632 114.662 29.493C114.628 29.8802 114.853 30.5739 115.095 30.6425C115.533 30.7655 116.315 30.6989 116.526 30.4025C117.114 29.6067 117.553 28.7102 117.822 27.7567C118.406 25.4598 118.825 23.1185 119.331 20.753H122.842C122.29 23.4089 121.748 26.0164 121.211 28.6178C121.151 28.9122 121.036 29.2228 121.088 29.5051C121.169 29.9286 121.367 30.6707 121.524 30.6727C121.995 30.6727 122.645 30.5296 122.902 30.1908C123.354 29.5747 123.675 28.8718 123.845 28.1257C124.373 25.9075 124.822 23.6791 125.25 21.4447C125.362 20.8659 125.599 20.6542 126.178 20.6804C127.039 20.7187 127.904 20.6905 128.919 20.6905C128.686 21.8843 128.48 22.9814 128.255 24.0744C127.916 25.7139 127.563 27.3514 127.22 28.9889C126.957 30.2311 127.152 30.707 127.95 30.8038C128.837 30.9026 129.567 30.1524 129.756 29.1764C130.067 27.5772 130.295 25.9216 130.907 24.4333C132.095 21.5395 134.276 20.2569 136.991 20.517C138.433 20.6562 139.123 21.4407 139.103 22.9168C139.077 25.0927 137.28 27.1618 134.86 27.789C134.41 27.9059 133.951 27.9906 133.455 28.0894C133.269 28.9889 133.213 30.0113 134.007 30.467C134.583 30.7978 135.512 30.6243 136.254 30.5033C136.734 30.4247 137.165 30.0375 137.659 29.7673C137.432 31.5217 136.371 32.7196 134.82 33.0423C132.601 33.5061 131.1 32.9253 129.984 31.1728C126.989 33.9497 124.78 33.9296 123.713 31.1124C120.765 33.8751 118.723 33.8993 117.443 31.1124C116.093 32.7095 114.482 33.8368 112.401 32.8285C110.447 31.8807 111.105 29.9911 111.255 28.2246C109.628 29.4345 108.015 29.9286 106.282 28.4807C106.145 28.8295 106.011 29.1582 105.89 29.489C105.289 31.1184 104.247 32.3445 102.622 32.9434C101.976 33.1834 101.785 33.5686 101.641 34.1534C101.4 35.1234 101.206 36.1317 100.774 37.019C99.8794 38.8642 97.8952 39.6406 95.943 39.0538C94.3821 38.5859 93.6879 36.7085 94.7854 35.4118C95.4836 34.583 96.5269 33.986 97.516 33.4899C98.168 33.1633 98.5372 32.8487 98.4931 32.0642C98.0571 32.3512 97.6056 32.6138 97.1408 32.8507C94.7332 33.9195 92.7269 32.3909 93.0519 29.7209C93.1883 28.5936 93.4712 27.4824 93.6879 26.3652C93.7702 25.9478 93.8504 25.5283 93.9507 25.0141L91.7257 25.6695C91.9805 27.545 91.7257 29.3599 90.5099 30.7937C89.7615 31.6797 88.8118 32.3714 87.7411 32.8103C85.3977 33.7057 83.6041 33.0281 82.3661 31.2092C81.2306 31.8888 80.093 32.53 79.0096 33.254C78.7768 33.4093 78.6564 33.859 78.6284 34.1776C78.502 35.5469 78.1308 36.8093 77.1998 37.8519C76.1766 38.9953 74.8825 39.3986 73.3998 39.1486C71.3313 38.7997 70.5488 36.7286 71.9553 35.1476C72.5331 34.5003 73.3938 34.103 74.1362 33.6049C74.5555 33.3226 75.34 33.4032 75.1233 32.5179C74.9066 31.6326 74.7461 30.7756 73.6567 30.6042C73.4139 30.5699 73.1491 30.5598 72.7839 30.5255ZM31.2528 29.5636C29.2464 27.2828 26.8629 25.732 23.7992 25.365C20.7015 24.9859 16.5163 26.3471 15.9264 28.0673C19.1927 26.2765 22.4991 25.9518 25.9801 27.1638C29.4611 28.3758 32.5107 32.0178 32.7656 34.4478C30.3359 28.4585 24.5797 26.6839 20.238 27.6781C15.6234 28.7348 12.1625 32.7196 11.8375 37.1562C11.3901 43.2403 15.1399 47.1687 19.0904 48.5258C21.3773 49.3296 23.8693 49.3211 26.1507 48.5016C29.5614 47.3139 31.6861 44.8374 33.0785 41.5725L32.7555 42.7281C33.5039 42.6494 34.1339 42.6131 34.7619 42.5143C36.9688 42.1674 38.7304 41.2096 39.6934 39.0598C39.8941 38.6021 39.8078 38.348 39.5329 37.9245C38.7304 36.6782 37.8336 35.4178 37.346 34.0304C36.4271 31.4088 36.3689 28.6299 36.6077 25.8712C36.7943 23.7114 37.0772 21.5596 37.338 19.2325C35.9877 18.9401 34.6375 18.5932 33.2651 18.3875C32.8899 18.331 32.4526 18.7001 32.0433 18.8735L32.1235 19.2183C32.6693 19.5249 33.2049 19.8596 33.7687 20.1319C34.3325 20.4041 34.9043 20.6058 35.4741 20.8377C35.3112 20.9221 35.1222 20.9402 34.9464 20.8881C32.0814 20.1944 30.1312 18.2968 28.462 15.9877C27.8937 15.2075 27.171 14.5538 26.3393 14.0679C23.5304 12.4808 18.2878 12.6926 15.9725 15.9797C13.9662 18.8312 11.1674 19.8274 7.86494 19.9443C4.40401 20.0673 2.35354 22.0598 2.04657 25.5425C1.66135 29.8721 1.97233 34.1857 2.47392 38.4831C2.64446 39.9552 3.27645 41.2862 4.60464 42.0727C6.66916 43.2826 8.9303 43.0971 11.2536 43.0205C10.427 40.7195 9.9736 38.5315 10.4752 36.2648C10.74 35.0548 11.1112 33.8812 11.4783 32.7055C13.4245 26.577 19.7344 22.7676 26.269 25.3771C28.3817 26.218 30.0811 27.5712 31.2568 29.5636H31.2528ZM89.3683 26.1837C89.1195 26.1837 88.9871 26.1979 88.8546 26.2079C88.1043 26.2604 87.39 26.1757 87.2295 25.2742C87.069 24.3728 87.5806 23.8505 88.4333 23.5984C88.6881 23.5238 89.0352 23.3423 89.1034 23.1306C89.6391 21.5173 90.1828 19.904 90.5761 18.2665C90.7205 17.6615 90.9332 16.6956 90.0384 16.4354C89.1436 16.1753 88.6981 17.0061 88.4333 17.6575C87.699 19.4724 86.9266 21.3116 86.4611 23.2112C85.9776 25.1795 85.795 27.2263 85.5743 29.249C85.5 29.9165 85.7609 30.6042 86.5373 30.8341C86.8906 30.9556 87.2726 30.9651 87.6315 30.8612C87.9903 30.7573 88.3088 30.5451 88.5437 30.2533C89.5508 29.0816 89.8558 27.7446 89.3723 26.1837H89.3683ZM64.6362 29.0978C64.9752 29.6806 65.1799 30.5195 65.6855 30.7897C66.5924 31.2757 67.3006 30.5457 67.6617 29.7632C68.1497 28.6359 68.5704 27.4803 68.9217 26.3027C68.9839 26.1152 68.8394 25.8006 68.699 25.613C68.1753 24.9113 68.2977 24.3083 68.7552 23.5964C68.9558 23.2697 69.004 22.6022 68.8013 22.3139C68.6288 22.0658 67.9587 21.9932 67.5975 22.1122C67.2364 22.2312 66.9013 22.6305 66.6846 22.9874C65.5671 24.8286 64.9512 26.8129 64.6362 29.0978ZM133.654 26.7907C135.576 26.6536 137.003 25.1371 137.199 23.0782C137.239 22.6748 136.977 22.2413 136.854 21.8218C136.421 21.9972 135.851 22.0577 135.578 22.3723C134.517 23.6025 134.051 25.127 133.658 26.7907H133.654ZM75.1454 34.6556L74.7702 34.3531C74.1322 34.8431 73.4139 35.2626 72.8942 35.8575C72.6936 36.0914 72.9404 36.7206 72.9825 37.1703C73.4139 37.0513 74.0459 37.0674 74.2345 36.7851C74.6598 36.1519 74.8584 35.3735 75.1494 34.6535L75.1454 34.6556ZM98.1279 34.6394L97.8089 34.3551C97.1849 34.8108 96.5028 35.2101 95.953 35.7425C95.5518 36.1317 95.4475 36.7307 96.0052 37.132C96.563 37.5333 97.0505 37.2469 97.3113 36.7286C97.6444 36.0531 97.8651 35.3331 98.1319 34.6374L98.1279 34.6394Z" fill="black"/>
</svg>
