<svg width="31" height="32" viewBox="0 0 31 32" fill="none" xmlns="http://www.w3.org/2000/svg">
<path d="M14.6981 0.00499205C12.1301 0.0359921 6.60906 0.457992 3.52106 3.29099C1.22406 5.56699 0.422058 8.93199 0.328058 13.093C0.250058 17.239 0.156058 25.025 7.66106 27.145V30.374C7.66106 30.374 7.61406 31.666 8.46806 31.931C9.52006 32.264 10.1191 31.27 11.1191 30.202L12.9841 28.093C18.1191 28.52 22.0521 27.536 22.5051 27.39C23.5471 27.057 29.4161 26.307 30.3751 18.52C31.3591 10.478 29.8961 5.41099 27.2551 3.11899H27.2391C26.4421 2.38499 23.2391 0.0509921 16.0831 0.0249921C16.0831 0.0249921 15.5521 -0.0110079 14.6981 0.00399205V0.00499205ZM14.7861 2.26599C15.5151 2.26099 15.9581 2.29199 15.9581 2.29199C22.0151 2.30799 24.9061 4.13099 25.5881 4.74499C27.8121 6.65099 28.9581 11.219 28.1191 17.933C27.3221 24.443 22.5621 24.855 21.6811 25.136C21.3061 25.256 17.8421 26.11 13.4781 25.829C13.4781 25.829 10.2281 29.751 9.21206 30.761C9.05106 30.938 8.86306 30.99 8.74306 30.964C8.57106 30.922 8.51906 30.709 8.52906 30.417L8.56006 25.058C2.19506 23.298 2.57006 16.657 2.63806 13.188C2.71606 9.71899 3.36706 6.88099 5.30506 4.95899C7.91406 2.59999 12.6021 2.28199 14.7841 2.26599H14.7861ZM15.2661 5.73399C15.2137 5.73346 15.1617 5.74331 15.1131 5.76296C15.0646 5.78261 15.0204 5.81168 14.9831 5.8485C14.9458 5.88531 14.9162 5.92913 14.8959 5.97744C14.8757 6.02576 14.8652 6.0776 14.8651 6.12999C14.8651 6.35399 15.0471 6.53099 15.2661 6.53099C16.2576 6.51214 17.243 6.68976 18.1655 7.05362C19.088 7.41748 19.9294 7.96037 20.6411 8.65099C22.0941 10.062 22.8021 11.958 22.8291 14.437C22.8291 14.656 23.0061 14.838 23.2301 14.838V14.822C23.3356 14.8223 23.437 14.7808 23.5121 14.7066C23.5873 14.6324 23.63 14.5316 23.6311 14.426C23.6796 13.2591 23.4904 12.0946 23.0749 11.0032C22.6594 9.91171 22.0263 8.91615 21.2141 8.07699C19.6311 6.52999 17.6251 5.73299 15.2661 5.73299V5.73399ZM9.99506 6.65099C9.71201 6.60963 9.42333 6.66645 9.17706 6.81199H9.15606C8.58432 7.14713 8.06927 7.57071 7.63006 8.06699C7.26506 8.48899 7.06706 8.91599 7.01506 9.32699C6.98406 9.57199 7.00506 9.81699 7.07806 10.051L7.10406 10.067C7.51506 11.275 8.05206 12.437 8.70806 13.531C9.55308 15.0679 10.593 16.4894 11.8021 17.76L11.8381 17.812L11.8951 17.854L11.9311 17.896L11.9731 17.932C13.2483 19.1446 14.6731 20.1894 16.2131 21.041C17.9731 21.999 19.0411 22.452 19.6821 22.64V22.65C19.8701 22.707 20.0411 22.733 20.2131 22.733C20.7593 22.693 21.2765 22.4712 21.6821 22.103C22.1761 21.6637 22.5949 21.1465 22.9221 20.572V20.562C23.2291 19.984 23.1251 19.437 22.6821 19.067C21.7949 18.2915 20.8355 17.6027 19.8171 17.01C19.1351 16.64 18.4421 16.864 18.1611 17.239L17.5621 17.994C17.2551 18.369 16.6971 18.317 16.6971 18.317L16.6811 18.327C12.5201 17.264 11.4101 13.051 11.4101 13.051C11.4101 13.051 11.3581 12.478 11.7431 12.186L12.4931 11.582C12.8521 11.29 13.1021 10.598 12.7171 9.91499C12.1285 8.89515 11.4412 7.93554 10.6651 7.04999C10.4954 6.84122 10.2574 6.69918 9.99306 6.64899L9.99506 6.65099ZM15.9581 7.83899C15.4271 7.83899 15.4271 8.64099 15.9631 8.64099C16.6233 8.6517 17.275 8.79243 17.8809 9.05513C18.4868 9.31782 19.0349 9.69734 19.4941 10.172C19.9129 10.634 20.2347 11.1754 20.4405 11.764C20.6463 12.3527 20.7318 12.9767 20.6921 13.599C20.6939 13.7043 20.7369 13.8047 20.8118 13.8787C20.8868 13.9528 20.9877 13.9945 21.0931 13.995L21.1091 14.016C21.2152 14.0152 21.3167 13.9727 21.3917 13.8977C21.4668 13.8226 21.5093 13.7211 21.5101 13.615C21.5461 12.026 21.0521 10.693 20.0831 9.62499C19.1091 8.55699 17.7501 7.95799 16.0151 7.83899H15.9581ZM16.6151 9.99499C16.0681 9.97899 16.0471 10.797 16.5891 10.813C17.9071 10.881 18.5471 11.547 18.6311 12.917C18.6329 13.021 18.6754 13.1201 18.7494 13.1932C18.8234 13.2663 18.923 13.3075 19.0271 13.308H19.0431C19.0965 13.3057 19.149 13.2928 19.1974 13.27C19.2459 13.2472 19.2893 13.215 19.3251 13.1752C19.3609 13.1355 19.3885 13.089 19.4062 13.0385C19.4239 12.9879 19.4313 12.9344 19.4281 12.881C19.3341 11.095 18.3601 10.089 16.6311 9.99599H16.6151V9.99499Z" fill="#CC2D70"/>
</svg>
