<svg width="33" height="32" viewBox="0 0 33 32" fill="none" xmlns="http://www.w3.org/2000/svg">
<path d="M21.411 0H11.588C2.62402 0 0.499023 2.125 0.499023 11.089V20.912C0.499023 29.876 2.62402 32.001 11.588 32.001H21.411C30.375 32.001 32.5 29.876 32.5 20.912V11.089C32.5 2.125 30.354 0 21.411 0ZM26.333 22.828H24.01C23.13 22.828 22.859 22.13 21.276 20.526C19.901 19.193 19.292 19.016 18.953 19.016C18.474 19.016 18.338 19.151 18.338 19.808V21.907C18.338 22.47 18.161 22.808 16.671 22.808C14.207 22.808 11.473 21.318 9.55602 18.542C6.66502 14.474 5.87402 11.427 5.87402 10.797C5.87402 10.458 6.00902 10.141 6.66002 10.141H8.98802C9.57702 10.141 9.80102 10.412 10.03 11.042C11.181 14.365 13.098 17.276 13.889 17.276C14.181 17.276 14.316 17.141 14.316 16.396V12.964C14.227 11.381 13.394 11.245 13.394 10.683C13.394 10.412 13.618 10.141 13.977 10.141H17.638C18.133 10.141 18.315 10.412 18.315 10.995V15.625C18.315 16.125 18.539 16.302 18.674 16.302C18.966 16.302 19.216 16.125 19.757 15.583C21.429 13.708 22.627 10.817 22.627 10.817C22.783 10.478 23.054 10.161 23.643 10.161H25.971C26.669 10.161 26.825 10.52 26.669 11.02C26.377 12.374 23.528 16.395 23.528 16.395C23.283 16.801 23.189 16.978 23.528 17.431C23.778 17.77 24.591 18.473 25.132 19.103C26.127 20.233 26.892 21.181 27.096 21.837C27.325 22.488 26.987 22.827 26.33 22.827L26.333 22.828Z" fill="#CC2D70"/>
</svg>
